# xmcd
#
# Track frame offsets: 
#        150
#        28282
#        47445
#        60859
#        79422
#        106644
#        127171
#        146660
#        164536
#        183701
#        203648
#
# Disc length: 2965 seconds
#
# Revision: 0
# Processed by: cddbd v1.5.2PL0 Copyright (c) Steve Scherf et al.
# Submitted via: ExactAudioCopy v0.95b4
#
DISCID=980b930b
DTITLE=Various Artist - Luxury Soul 2007 [CD1]
DYEAR=2007
DGENRE=Soul
TTITLE0=Inner Shade - Are You With Me
TTITLE1=Khani Cole - Sunshine
TTITLE2=Carmen Rogers - Hands Of Time
TTITLE3=James Day and Audrey Wheeler - She's Not Hte Girl
TTITLE4=Don Blackman - Ghetto Lament
TTITLE5=Men-nefer - Jonesin'
TTITLE6=Jabari Grover - Since You Been Gone
TTITLE7=Stephanie Mills - Love Of My Life
TTITLE8=Victor Haynes - Tell Me Where You Are
TTITLE9=Nicolas Bearde - Wild Is The Wind
TTITLE10=Phillippe - Long Long Road
EXTD=
EXTT0=
EXTT1=
EXTT2=
EXTT3=
EXTT4=
EXTT5=
EXTT6=
EXTT7=
EXTT8=
EXTT9=
EXTT10=
PLAYORDER=
